# xmcd
#
# Track frame offsets: 
#        182
#        14317
#        26947
#        37465
#        49700
#        62087
#        73722
#        85247
#        97680
#        112507
#        127160
#        139732
#        156855
#        170095
#
# Disc length: 2464 seconds
#
# Revision: 9
# Processed by: cddbd v1.5.2PL0 Copyright (c) Steve Scherf et al.
# Submitted via: ExactAudioCopyFreeDBPlugin 1.0
#
DISCID=c0099e0e
DTITLE=Various Artist - Classic Recordings by the Artists of the Musi
DTITLE=c Featured in the Motion Picture "The Commitments"
DYEAR=1991
DGENRE=Soul
TTITLE0=Wilson Pickett - Mustang Sally
TTITLE1=Aretha Franklin - Chain of Fools
TTITLE2=Otis Redding - Hard to Handle
TTITLE3=Otis Redding - Mr. Pitiful
TTITLE4=Aretha Franklin - I Never Loved a Man (The Way I Love You)
TTITLE5=Wilson Pickett - In the Midnight Hour
TTITLE6=Clarence Carter - Slip Away
TTITLE7=James Brown - Please, Please, Please
TTITLE8=Aretha Franklin - Do Right Woman, Do Right Man
TTITLE9=Otis Redding - I've Got Dreams to Remember
TTITLE10=Percy Sledge - The Dark End of the Street
TTITLE11=Otis Redding - Try a Little Tenderness
TTITLE12=Joe Tex - Show Me
TTITLE13=Isaac Hayes - Theme from Shaft
EXTD=YEAR: 1991
EXTT0=
EXTT1=
EXTT2=
EXTT3=
EXTT4=
EXTT5=
EXTT6=
EXTT7=
EXTT8=
EXTT9=
EXTT10=
EXTT11=
EXTT12=
EXTT13=
PLAYORDER=
